<svg width="150" height="90" viewBox="0 0 150 90" fill="none" xmlns="http://www.w3.org/2000/svg">
<path d="M0.693182 56.9808H2.6875L5.72727 62.2706H5.85227L8.89205 56.9808H10.8864L6.66477 64.049V68.6172H4.91477V64.049L0.693182 56.9808ZM14.6463 68.7933C13.8281 68.7933 13.1141 68.6058 12.5043 68.2308C11.8944 67.8558 11.4209 67.3312 11.0838 66.657C10.7467 65.9827 10.5781 65.1948 10.5781 64.2933C10.5781 63.388 10.7467 62.5964 11.0838 61.9183C11.4209 61.2403 11.8944 60.7138 12.5043 60.3388C13.1141 59.9638 13.8281 59.7763 14.6463 59.7763C15.4645 59.7763 16.1785 59.9638 16.7884 60.3388C17.3982 60.7138 17.8717 61.2403 18.2088 61.9183C18.5459 62.5964 18.7145 63.388 18.7145 64.2933C18.7145 65.1948 18.5459 65.9827 18.2088 66.657C17.8717 67.3312 17.3982 67.8558 16.7884 68.2308C16.1785 68.6058 15.4645 68.7933 14.6463 68.7933ZM14.652 67.3672C15.1823 67.3672 15.6217 67.227 15.9702 66.9467C16.3187 66.6664 16.5762 66.2933 16.7429 65.8274C16.9134 65.3615 16.9986 64.8482 16.9986 64.2876C16.9986 63.7308 16.9134 63.2195 16.7429 62.7536C16.5762 62.2839 16.3187 61.907 15.9702 61.6229C15.6217 61.3388 15.1823 61.1967 14.652 61.1967C14.1179 61.1967 13.6747 61.3388 13.3224 61.6229C12.974 61.907 12.7145 62.2839 12.544 62.7536C12.3774 63.2195 12.294 63.7308 12.294 64.2876C12.294 64.8482 12.3774 65.3615 12.544 65.8274C12.7145 66.2933 12.974 66.6664 13.3224 66.9467C13.6747 67.227 14.1179 67.3672 14.652 67.3672ZM26.1392 64.9979V59.8899H27.8438V68.6172H26.1733V67.1058H26.0824C25.8816 67.5717 25.5597 67.96 25.1165 68.2706C24.6771 68.5774 24.1297 68.7308 23.4744 68.7308C22.9138 68.7308 22.4176 68.6077 21.9858 68.3615C21.5578 68.1115 21.2206 67.7422 20.9744 67.2536C20.732 66.7649 20.6108 66.1607 20.6108 65.4411V59.8899H22.3097V65.2365C22.3097 65.8312 22.4744 66.3047 22.804 66.657C23.1335 67.0092 23.5616 67.1854 24.0881 67.1854C24.4063 67.1854 24.7225 67.1058 25.0369 66.9467C25.3551 66.7876 25.6184 66.5471 25.8267 66.2251C26.0388 65.9032 26.143 65.4941 26.1392 64.9979ZM30.1264 68.6172V59.8899H31.7685V61.2763H31.8594C32.0185 60.8066 32.2988 60.4373 32.7003 60.1683C33.1056 59.8956 33.5639 59.7592 34.0753 59.7592C34.1813 59.7592 34.3063 59.763 34.4503 59.7706C34.598 59.7782 34.7135 59.7876 34.7969 59.799V61.424C34.7287 61.4051 34.6075 61.3842 34.4332 61.3615C34.259 61.335 34.0848 61.3217 33.9105 61.3217C33.509 61.3217 33.151 61.407 32.8366 61.5774C32.526 61.7441 32.2798 61.977 32.098 62.2763C31.9162 62.5717 31.8253 62.9089 31.8253 63.2876V68.6172H30.1264ZM40.6378 68.6172V56.9808H44.7855C45.6908 56.9808 46.4408 57.1456 47.0355 57.4751C47.6302 57.8047 48.0753 58.2554 48.3707 58.8274C48.6662 59.3956 48.8139 60.0357 48.8139 60.7479C48.8139 61.4638 48.6643 62.1077 48.3651 62.6797C48.0696 63.2479 47.6226 63.6986 47.0241 64.032C46.4295 64.3615 45.6813 64.5263 44.7798 64.5263H41.9276V63.0376H44.6207C45.1927 63.0376 45.6567 62.9392 46.0128 62.7422C46.3688 62.5414 46.6302 62.2687 46.7969 61.924C46.9635 61.5793 47.0469 61.1873 47.0469 60.7479C47.0469 60.3085 46.9635 59.9183 46.7969 59.5774C46.6302 59.2365 46.367 58.9695 46.0071 58.7763C45.651 58.5831 45.1813 58.4865 44.598 58.4865H42.3935V68.6172H40.6378ZM50.7358 68.6172V59.8899H52.3778V61.2763H52.4688C52.6278 60.8066 52.9081 60.4373 53.3097 60.1683C53.715 59.8956 54.1733 59.7592 54.6847 59.7592C54.7907 59.7592 54.9157 59.763 55.0597 59.7706C55.2074 59.7782 55.3229 59.7876 55.4062 59.799V61.424C55.3381 61.4051 55.2169 61.3842 55.0426 61.3615C54.8684 61.335 54.6941 61.3217 54.5199 61.3217C54.1184 61.3217 53.7604 61.407 53.446 61.5774C53.1354 61.7441 52.8892 61.977 52.7074 62.2763C52.5256 62.5717 52.4347 62.9089 52.4347 63.2876V68.6172H50.7358ZM60.2401 68.7933C59.4219 68.7933 58.7079 68.6058 58.098 68.2308C57.4882 67.8558 57.0147 67.3312 56.6776 66.657C56.3404 65.9827 56.1719 65.1948 56.1719 64.2933C56.1719 63.388 56.3404 62.5964 56.6776 61.9183C57.0147 61.2403 57.4882 60.7138 58.098 60.3388C58.7079 59.9638 59.4219 59.7763 60.2401 59.7763C61.0582 59.7763 61.7723 59.9638 62.3821 60.3388C62.992 60.7138 63.4654 61.2403 63.8026 61.9183C64.1397 62.5964 64.3082 63.388 64.3082 64.2933C64.3082 65.1948 64.1397 65.9827 63.8026 66.657C63.4654 67.3312 62.992 67.8558 62.3821 68.2308C61.7723 68.6058 61.0582 68.7933 60.2401 68.7933ZM60.2457 67.3672C60.776 67.3672 61.2154 67.227 61.5639 66.9467C61.9124 66.6664 62.17 66.2933 62.3366 65.8274C62.5071 65.3615 62.5923 64.8482 62.5923 64.2876C62.5923 63.7308 62.5071 63.2195 62.3366 62.7536C62.17 62.2839 61.9124 61.907 61.5639 61.6229C61.2154 61.3388 60.776 61.1967 60.2457 61.1967C59.7116 61.1967 59.2685 61.3388 58.9162 61.6229C58.5677 61.907 58.3082 62.2839 58.1378 62.7536C57.9711 63.2195 57.8878 63.7308 57.8878 64.2876C57.8878 64.8482 57.9711 65.3615 58.1378 65.8274C58.3082 66.2933 58.5677 66.6664 58.9162 66.9467C59.2685 67.227 59.7116 67.3672 60.2457 67.3672ZM70.358 59.8899V61.2536H65.4261V59.8899H70.358ZM66.7784 68.6172V58.8786C66.7784 58.3331 66.8977 57.8804 67.1364 57.5206C67.375 57.157 67.6913 56.8861 68.0852 56.7081C68.4792 56.5263 68.9072 56.4354 69.3693 56.4354C69.7102 56.4354 70.0019 56.4638 70.2443 56.5206C70.4867 56.5736 70.6667 56.6229 70.7841 56.6683L70.3864 58.0433C70.3068 58.0206 70.2045 57.9941 70.0795 57.9638C69.9545 57.9297 69.803 57.9126 69.625 57.9126C69.2121 57.9126 68.9167 58.0149 68.7386 58.2195C68.5644 58.424 68.4773 58.7195 68.4773 59.1058V68.6172H66.7784ZM72.1108 68.6172V59.8899H73.8097V68.6172H72.1108ZM72.9688 58.5433C72.6733 58.5433 72.4195 58.4448 72.2074 58.2479C71.9991 58.0471 71.8949 57.8085 71.8949 57.532C71.8949 57.2517 71.9991 57.013 72.2074 56.8161C72.4195 56.6153 72.6733 56.5149 72.9688 56.5149C73.2642 56.5149 73.5161 56.6153 73.7244 56.8161C73.9366 57.013 74.0426 57.2517 74.0426 57.532C74.0426 57.8085 73.9366 58.0471 73.7244 58.2479C73.5161 58.4448 73.2642 58.5433 72.9688 58.5433ZM80.169 59.8899V61.2536H75.402V59.8899H80.169ZM76.6804 57.799H78.3793V66.0547C78.3793 66.3842 78.4285 66.6323 78.527 66.799C78.6255 66.9619 78.7524 67.0736 78.9077 67.1342C79.0668 67.1911 79.2391 67.2195 79.4247 67.2195C79.5611 67.2195 79.6804 67.21 79.7827 67.1911C79.8849 67.1721 79.9645 67.157 80.0213 67.1456L80.3281 68.549C80.2296 68.5869 80.0895 68.6248 79.9077 68.6626C79.7259 68.7043 79.4986 68.727 79.2259 68.7308C78.7789 68.7384 78.3622 68.6589 77.9759 68.4922C77.5895 68.3255 77.277 68.0679 77.0384 67.7195C76.7997 67.371 76.6804 66.9335 76.6804 66.407V57.799ZM86.2827 68.6172V59.8899H87.9815V68.6172H86.2827ZM87.1406 58.5433C86.8452 58.5433 86.5914 58.4448 86.3793 58.2479C86.1709 58.0471 86.0668 57.8085 86.0668 57.532C86.0668 57.2517 86.1709 57.013 86.3793 56.8161C86.5914 56.6153 86.8452 56.5149 87.1406 56.5149C87.4361 56.5149 87.688 56.6153 87.8963 56.8161C88.1084 57.013 88.2145 57.2517 88.2145 57.532C88.2145 57.8085 88.1084 58.0471 87.8963 58.2479C87.688 58.4448 87.4361 58.5433 87.1406 58.5433ZM91.9659 63.4354V68.6172H90.267V59.8899H91.8977V61.3104H92.0057C92.2064 60.8482 92.5208 60.477 92.9489 60.1967C93.3807 59.9164 93.9242 59.7763 94.5795 59.7763C95.1742 59.7763 95.6951 59.9013 96.142 60.1513C96.589 60.3975 96.9356 60.7649 97.1818 61.2536C97.428 61.7422 97.5511 62.3464 97.5511 63.0661V68.6172H95.8523V63.2706C95.8523 62.638 95.6875 62.1437 95.358 61.7876C95.0284 61.4278 94.5758 61.2479 94 61.2479C93.6061 61.2479 93.2557 61.3331 92.9489 61.5036C92.6458 61.674 92.4053 61.924 92.2273 62.2536C92.053 62.5793 91.9659 62.9732 91.9659 63.4354ZM8.53125 79.0376C8.47064 78.4998 8.22064 78.0831 7.78125 77.7876C7.34186 77.4884 6.78883 77.3388 6.12216 77.3388C5.64489 77.3388 5.23201 77.4145 4.88352 77.5661C4.53504 77.7138 4.2642 77.9183 4.07102 78.1797C3.88163 78.4373 3.78693 78.7308 3.78693 79.0604C3.78693 79.3369 3.85133 79.5755 3.98011 79.7763C4.11269 79.977 4.28504 80.1456 4.49716 80.282C4.71307 80.4145 4.94413 80.5263 5.19034 80.6172C5.43655 80.7043 5.6733 80.7763 5.90057 80.8331L7.03693 81.1286C7.40814 81.2195 7.78883 81.3426 8.17898 81.4979C8.56913 81.6532 8.93087 81.8577 9.2642 82.1115C9.59754 82.3653 9.86648 82.6797 10.071 83.0547C10.2794 83.4297 10.3835 83.8786 10.3835 84.4013C10.3835 85.0604 10.2131 85.6456 9.87216 86.157C9.53504 86.6683 9.04451 87.0717 8.40057 87.3672C7.76042 87.6626 6.9858 87.8104 6.0767 87.8104C5.20549 87.8104 4.4517 87.6721 3.81534 87.3956C3.17898 87.1191 2.68087 86.727 2.32102 86.2195C1.96117 85.7081 1.76231 85.102 1.72443 84.4013H3.4858C3.51989 84.8217 3.65625 85.1721 3.89489 85.4524C4.13731 85.7289 4.44602 85.9354 4.82102 86.0717C5.19981 86.2043 5.61458 86.2706 6.06534 86.2706C6.56155 86.2706 7.00284 86.1929 7.3892 86.0376C7.77936 85.8786 8.08617 85.6589 8.30966 85.3786C8.53314 85.0945 8.64489 84.763 8.64489 84.3842C8.64489 84.0395 8.5464 83.7573 8.34943 83.5376C8.15625 83.3179 7.89299 83.1361 7.55966 82.9922C7.23011 82.8482 6.85701 82.7214 6.44034 82.6115L5.06534 82.2365C4.13352 81.9827 3.39489 81.6096 2.84943 81.1172C2.30777 80.6248 2.03693 79.9732 2.03693 79.1626C2.03693 78.4922 2.21875 77.907 2.58239 77.407C2.94602 76.907 3.43845 76.5187 4.05966 76.2422C4.68087 75.9619 5.38163 75.8217 6.16193 75.8217C6.94981 75.8217 7.64489 75.96 8.24716 76.2365C8.85322 76.513 9.33049 76.8937 9.67898 77.3786C10.0275 77.8596 10.2093 78.4126 10.2244 79.0376H8.53125ZM16.0213 87.7933C15.2031 87.7933 14.4891 87.6058 13.8793 87.2308C13.2694 86.8558 12.7959 86.3312 12.4588 85.657C12.1217 84.9827 11.9531 84.1948 11.9531 83.2933C11.9531 82.388 12.1217 81.5964 12.4588 80.9183C12.7959 80.2403 13.2694 79.7138 13.8793 79.3388C14.4891 78.9638 15.2031 78.7763 16.0213 78.7763C16.8395 78.7763 17.5535 78.9638 18.1634 79.3388C18.7732 79.7138 19.2467 80.2403 19.5838 80.9183C19.9209 81.5964 20.0895 82.388 20.0895 83.2933C20.0895 84.1948 19.9209 84.9827 19.5838 85.657C19.2467 86.3312 18.7732 86.8558 18.1634 87.2308C17.5535 87.6058 16.8395 87.7933 16.0213 87.7933ZM16.027 86.3672C16.5573 86.3672 16.9967 86.227 17.3452 85.9467C17.6937 85.6664 17.9512 85.2933 18.1179 84.8274C18.2884 84.3615 18.3736 83.8482 18.3736 83.2876C18.3736 82.7308 18.2884 82.2195 18.1179 81.7536C17.9512 81.2839 17.6937 80.907 17.3452 80.6229C16.9967 80.3388 16.5573 80.1967 16.027 80.1967C15.4929 80.1967 15.0497 80.3388 14.6974 80.6229C14.349 80.907 14.0895 81.2839 13.919 81.7536C13.7524 82.2195 13.669 82.7308 13.669 83.2876C13.669 83.8482 13.7524 84.3615 13.919 84.8274C14.0895 85.2933 14.349 85.6664 14.6974 85.9467C15.0497 86.227 15.4929 86.3672 16.027 86.3672ZM25.6619 87.7933C24.8172 87.7933 24.09 87.602 23.4801 87.2195C22.8741 86.8331 22.4081 86.3009 22.0824 85.6229C21.7566 84.9448 21.5938 84.1683 21.5938 83.2933C21.5938 82.407 21.7604 81.6248 22.0938 80.9467C22.4271 80.2649 22.8968 79.7327 23.5028 79.3501C24.1089 78.9676 24.8229 78.7763 25.6449 78.7763C26.3078 78.7763 26.8987 78.8994 27.4176 79.1456C27.9366 79.388 28.3551 79.7289 28.6733 80.1683C28.9953 80.6077 29.1866 81.121 29.2472 81.7081H27.5938C27.5028 81.299 27.2945 80.9467 26.9688 80.6513C26.6468 80.3558 26.215 80.2081 25.6733 80.2081C25.1998 80.2081 24.785 80.3331 24.429 80.5831C24.0767 80.8293 23.8021 81.1816 23.6051 81.6399C23.4081 82.0945 23.3097 82.6323 23.3097 83.2536C23.3097 83.8899 23.4063 84.4392 23.5994 84.9013C23.7926 85.3634 24.0653 85.7214 24.4176 85.9751C24.7737 86.2289 25.1922 86.3558 25.6733 86.3558C25.9953 86.3558 26.2869 86.2971 26.5483 86.1797C26.8134 86.0585 27.035 85.8861 27.2131 85.6626C27.3949 85.4392 27.5218 85.1702 27.5938 84.8558H29.2472C29.1866 85.4202 29.0028 85.924 28.696 86.3672C28.3892 86.8104 27.9782 87.1589 27.4631 87.4126C26.9517 87.6664 26.3513 87.7933 25.6619 87.7933ZM31.0639 87.6172V78.8899H32.7628V87.6172H31.0639ZM31.9219 77.5433C31.6264 77.5433 31.3726 77.4448 31.1605 77.2479C30.9522 77.0471 30.848 76.8085 30.848 76.532C30.848 76.2517 30.9522 76.013 31.1605 75.8161C31.3726 75.6153 31.6264 75.5149 31.9219 75.5149C32.2173 75.5149 32.4692 75.6153 32.6776 75.8161C32.8897 76.013 32.9957 76.2517 32.9957 76.532C32.9957 76.8085 32.8897 77.0471 32.6776 77.2479C32.4692 77.4448 32.2173 77.5433 31.9219 77.5433ZM37.5881 87.8104C37.035 87.8104 36.535 87.7081 36.0881 87.5036C35.6411 87.2952 35.2869 86.9941 35.0256 86.6001C34.768 86.2062 34.6392 85.7232 34.6392 85.1513C34.6392 84.6589 34.7339 84.2536 34.9233 83.9354C35.1127 83.6172 35.3684 83.3653 35.6903 83.1797C36.0123 82.9941 36.3722 82.8539 36.7699 82.7592C37.1676 82.6645 37.5729 82.5926 37.9858 82.5433C38.5085 82.4827 38.9328 82.4335 39.2585 82.3956C39.5843 82.3539 39.821 82.2876 39.9688 82.1967C40.1165 82.1058 40.1903 81.9581 40.1903 81.7536V81.7138C40.1903 81.2176 40.0502 80.8331 39.7699 80.5604C39.4934 80.2876 39.0805 80.1513 38.5312 80.1513C37.9593 80.1513 37.5085 80.2782 37.179 80.532C36.8532 80.782 36.6278 81.0604 36.5028 81.3672L34.9062 81.0036C35.0956 80.4732 35.3722 80.0452 35.7358 79.7195C36.1032 79.3899 36.5256 79.1513 37.0028 79.0036C37.4801 78.852 37.982 78.7763 38.5085 78.7763C38.857 78.7763 39.2263 78.8179 39.6165 78.9013C40.0104 78.9808 40.3778 79.1286 40.7188 79.3445C41.0634 79.5604 41.3456 79.8691 41.5653 80.2706C41.785 80.6683 41.8949 81.1854 41.8949 81.8217V87.6172H40.2358V86.424H40.1676C40.0578 86.6437 39.893 86.8596 39.6733 87.0717C39.4536 87.2839 39.1714 87.46 38.8267 87.6001C38.482 87.7403 38.0691 87.8104 37.5881 87.8104ZM37.9574 86.4467C38.4271 86.4467 38.8286 86.3539 39.1619 86.1683C39.4991 85.9827 39.7547 85.7403 39.929 85.4411C40.107 85.138 40.196 84.8142 40.196 84.4695V83.3445C40.1354 83.4051 40.018 83.4619 39.8438 83.5149C39.6733 83.5642 39.4782 83.6077 39.2585 83.6456C39.0388 83.6797 38.8248 83.7119 38.6165 83.7422C38.4081 83.7687 38.2339 83.7914 38.0938 83.8104C37.7642 83.852 37.4631 83.9221 37.1903 84.0206C36.9214 84.1191 36.7055 84.2611 36.5426 84.4467C36.3835 84.6286 36.304 84.871 36.304 85.174C36.304 85.5945 36.4593 85.9126 36.7699 86.1286C37.0805 86.3407 37.4763 86.4467 37.9574 86.4467ZM45.8565 75.9808V87.6172H44.1577V75.9808H45.8565ZM52.5128 75.9808H54.6435L58.348 85.0263H58.4844L62.1889 75.9808H64.3196V87.6172H62.6491V79.1967H62.5412L59.1094 87.6001H57.723L54.2912 79.1911H54.1832V87.6172H52.5128V75.9808ZM70.4972 87.7933C69.6373 87.7933 68.8968 87.6096 68.2756 87.2422C67.6581 86.871 67.1809 86.3501 66.8438 85.6797C66.5104 85.0054 66.3438 84.2157 66.3438 83.3104C66.3438 82.4164 66.5104 81.6286 66.8438 80.9467C67.1809 80.2649 67.6506 79.7327 68.2528 79.3501C68.8589 78.9676 69.5672 78.7763 70.3778 78.7763C70.8703 78.7763 71.3475 78.8577 71.8097 79.0206C72.2718 79.1835 72.6866 79.4392 73.054 79.7876C73.4214 80.1361 73.7112 80.5888 73.9233 81.1456C74.1354 81.6986 74.2415 82.371 74.2415 83.1626V83.7649H67.304V82.4922H72.5767C72.5767 82.0452 72.4858 81.6494 72.304 81.3047C72.1222 80.9562 71.8665 80.6816 71.5369 80.4808C71.2112 80.2801 70.8286 80.1797 70.3892 80.1797C69.9119 80.1797 69.4953 80.2971 69.1392 80.532C68.7869 80.763 68.5142 81.0661 68.321 81.4411C68.1316 81.8123 68.0369 82.2157 68.0369 82.6513V83.6456C68.0369 84.2289 68.1392 84.7251 68.3438 85.1342C68.5521 85.5433 68.8419 85.8558 69.2131 86.0717C69.5843 86.2839 70.018 86.3899 70.5142 86.3899C70.8362 86.3899 71.1297 86.3445 71.3949 86.2536C71.66 86.1589 71.8892 86.0187 72.0824 85.8331C72.2756 85.6475 72.4233 85.4183 72.5256 85.1456L74.1335 85.4354C74.0047 85.9089 73.7737 86.3236 73.4403 86.6797C73.1108 87.032 72.696 87.3066 72.196 87.5036C71.6998 87.6967 71.1335 87.7933 70.4972 87.7933ZM79.3935 87.7876C78.6889 87.7876 78.0601 87.6077 77.5071 87.2479C76.9579 86.8842 76.526 86.3672 76.2116 85.6967C75.901 85.0225 75.7457 84.2138 75.7457 83.2706C75.7457 82.3274 75.9029 81.5206 76.2173 80.8501C76.5355 80.1797 76.9711 79.6664 77.5241 79.3104C78.0772 78.9543 78.7041 78.7763 79.4048 78.7763C79.9465 78.7763 80.3821 78.8672 80.7116 79.049C81.045 79.227 81.3026 79.4354 81.4844 79.674C81.67 79.9126 81.8139 80.1229 81.9162 80.3047H82.0185V75.9808H83.7173V87.6172H82.0582V86.2592H81.9162C81.8139 86.4448 81.6662 86.657 81.473 86.8956C81.2836 87.1342 81.0223 87.3426 80.6889 87.5206C80.3556 87.6986 79.9238 87.7876 79.3935 87.7876ZM79.7685 86.3388C80.2571 86.3388 80.67 86.21 81.0071 85.9524C81.348 85.6911 81.6056 85.3293 81.7798 84.8672C81.9579 84.4051 82.0469 83.8672 82.0469 83.2536C82.0469 82.6475 81.9598 82.1172 81.7855 81.6626C81.6113 81.2081 81.3556 80.8539 81.0185 80.6001C80.6813 80.3464 80.2647 80.2195 79.7685 80.2195C79.2571 80.2195 78.831 80.352 78.4901 80.6172C78.1491 80.8823 77.8916 81.2441 77.7173 81.7024C77.5469 82.1607 77.4616 82.6778 77.4616 83.2536C77.4616 83.8369 77.5488 84.3615 77.723 84.8274C77.8973 85.2933 78.1548 85.6626 78.4957 85.9354C78.8404 86.2043 79.2647 86.3388 79.7685 86.3388ZM86.142 87.6172V78.8899H87.8409V87.6172H86.142ZM87 77.5433C86.7045 77.5433 86.4508 77.4448 86.2386 77.2479C86.0303 77.0471 85.9261 76.8085 85.9261 76.532C85.9261 76.2517 86.0303 76.013 86.2386 75.8161C86.4508 75.6153 86.7045 75.5149 87 75.5149C87.2955 75.5149 87.5473 75.6153 87.7557 75.8161C87.9678 76.013 88.0739 76.2517 88.0739 76.532C88.0739 76.8085 87.9678 77.0471 87.7557 77.2479C87.5473 77.4448 87.2955 77.5433 87 77.5433ZM92.6662 87.8104C92.1132 87.8104 91.6132 87.7081 91.1662 87.5036C90.7192 87.2952 90.3651 86.9941 90.1037 86.6001C89.8461 86.2062 89.7173 85.7232 89.7173 85.1513C89.7173 84.6589 89.812 84.2536 90.0014 83.9354C90.1908 83.6172 90.4465 83.3653 90.7685 83.1797C91.0904 82.9941 91.4503 82.8539 91.848 82.7592C92.2457 82.6645 92.651 82.5926 93.0639 82.5433C93.5866 82.4827 94.0109 82.4335 94.3366 82.3956C94.6624 82.3539 94.8991 82.2876 95.0469 82.1967C95.1946 82.1058 95.2685 81.9581 95.2685 81.7536V81.7138C95.2685 81.2176 95.1283 80.8331 94.848 80.5604C94.5715 80.2876 94.1586 80.1513 93.6094 80.1513C93.0374 80.1513 92.5866 80.2782 92.2571 80.532C91.9313 80.782 91.706 81.0604 91.581 81.3672L89.9844 81.0036C90.1738 80.4732 90.4503 80.0452 90.8139 79.7195C91.1813 79.3899 91.6037 79.1513 92.081 79.0036C92.5582 78.852 93.0601 78.7763 93.5866 78.7763C93.9351 78.7763 94.3045 78.8179 94.6946 78.9013C95.0885 78.9808 95.456 79.1286 95.7969 79.3445C96.1416 79.5604 96.4238 79.8691 96.6435 80.2706C96.8632 80.6683 96.973 81.1854 96.973 81.8217V87.6172H95.3139V86.424H95.2457C95.1359 86.6437 94.9711 86.8596 94.7514 87.0717C94.5317 87.2839 94.2495 87.46 93.9048 87.6001C93.5601 87.7403 93.1473 87.8104 92.6662 87.8104ZM93.0355 86.4467C93.5052 86.4467 93.9067 86.3539 94.2401 86.1683C94.5772 85.9827 94.8329 85.7403 95.0071 85.4411C95.1851 85.138 95.2741 84.8142 95.2741 84.4695V83.3445C95.2135 83.4051 95.0961 83.4619 94.9219 83.5149C94.7514 83.5642 94.5563 83.6077 94.3366 83.6456C94.117 83.6797 93.9029 83.7119 93.6946 83.7422C93.4863 83.7687 93.312 83.7914 93.1719 83.8104C92.8423 83.852 92.5412 83.9221 92.2685 84.0206C91.9995 84.1191 91.7836 84.2611 91.6207 84.4467C91.4616 84.6286 91.3821 84.871 91.3821 85.174C91.3821 85.5945 91.5374 85.9126 91.848 86.1286C92.1586 86.3407 92.5545 86.4467 93.0355 86.4467Z" fill="black"/>
<path fill-rule="evenodd" clip-rule="evenodd" d="M5.62155 14.1748H8.65564C10.6441 14.1748 12.32 13.5051 13.6832 12.1656C14.3454 11.5374 14.8695 10.7799 15.2225 9.94079C15.5756 9.10164 15.7499 8.19904 15.7346 7.28973C15.7501 6.38017 15.5758 5.47728 15.2227 4.63786C14.8697 3.79845 14.3455 3.04069 13.6832 2.41225C12.3144 1.07275 10.6386 0.403008 8.65564 0.403008H1V20.479H5.62155V14.1748ZM5.62155 4.70619H8.65564C8.98635 4.69736 9.31509 4.75954 9.61938 4.88847C9.92366 5.01741 10.1963 5.21007 10.4188 5.45327C10.8805 5.95297 11.1278 6.6118 11.1081 7.28973C11.1267 7.96759 10.8781 8.62587 10.4155 9.12454C10.194 9.36827 9.92202 9.56152 9.61826 9.69109C9.3145 9.82053 8.98611 9.88334 8.65564 9.87492H5.62155V4.70619ZM36.443 17.8707C38.4878 15.8654 39.5102 13.3899 39.5102 10.4443C39.5102 7.49872 38.4894 5.02213 36.4479 3.01453C34.4064 1.00584 31.9219 0.0014881 28.9945 0.0014881C26.067 0.0014881 23.5847 1.00584 21.5476 3.01453C19.5061 5.02213 18.4854 7.49872 18.4854 10.4443C18.4854 13.3899 19.5061 15.867 21.5476 17.8757C23.5891 19.8833 26.0747 20.8871 29.0044 20.8871C31.9341 20.8871 34.4153 19.8833 36.4479 17.8757L36.443 17.8707ZM23.1019 10.4443C23.1019 8.68902 23.6648 7.25463 24.7905 6.14112C25.9162 5.02762 27.3175 4.47306 28.9945 4.47745C30.6703 4.47745 32.0716 5.03201 33.1984 6.14112C34.3252 7.25024 34.8886 8.68463 34.8886 10.4443C34.8886 12.1996 34.3252 13.6339 33.1984 14.7475C32.0716 15.861 30.6703 16.4161 28.9945 16.4128C27.3197 16.4128 25.9184 15.8577 24.7905 14.7475C23.6626 13.6373 23.0997 12.2029 23.1019 10.4443ZM49.9116 20.8871C47.8502 20.8871 46.1307 20.4428 44.7532 19.5542C43.402 18.6957 42.3722 17.4203 41.8218 15.9241L45.8087 13.6203C46.6174 15.4819 48.0308 16.4128 50.0491 16.4128C51.8785 16.4128 52.7932 15.8676 52.7932 14.7771C52.7932 14.1847 52.4994 13.7206 51.9117 13.3849C51.324 13.0492 50.2193 12.6619 48.5975 12.2231C47.8367 12.0248 47.093 11.7661 46.3738 11.4497C45.7098 11.1455 45.0841 10.7651 44.5096 10.3159C43.9123 9.85194 43.4403 9.24812 43.1359 8.55847C42.805 7.78819 42.6423 6.957 42.6586 6.11973C42.6586 4.26352 43.3281 2.7825 44.667 1.67668C46.0059 0.570857 47.6 0.0124586 49.4493 0.0014881C50.9932 -0.027766 52.5143 0.374822 53.8388 1.16326C55.1115 1.93888 56.1129 3.06281 56.8431 4.53504L52.944 6.80099C52.6437 6.11944 52.1773 5.5228 51.5869 5.06492C51.0467 4.67327 50.3341 4.47745 49.4493 4.47745C48.7555 4.47745 48.2208 4.62555 47.8452 4.92176C47.6722 5.044 47.5309 5.20532 47.4329 5.39244C47.335 5.57954 47.2832 5.78708 47.2818 5.99795C47.2818 6.49492 47.5177 6.92551 47.9894 7.28973C48.4611 7.65395 49.4388 8.05547 50.9224 8.4943C51.7311 8.74333 52.3569 8.94409 52.7999 9.09657C53.3802 9.31097 53.945 9.56499 54.4901 9.85682C55.0715 10.1368 55.5992 10.5154 56.0494 10.9758C56.4511 11.4373 56.775 11.9602 57.0088 12.5243C57.2978 13.2199 57.4399 13.9671 57.4264 14.7195C57.4264 16.6316 56.7332 18.1379 55.3468 19.2383C53.9604 20.3386 52.1486 20.8882 49.9116 20.8871ZM64.2104 20.4856V4.82138H59.0105V0.403008H74.0335V4.82138H68.8336V20.4856H64.2104ZM16.6013 26.2451H21.2162V46.3211H16.6013V34.6376L11.3716 43.1731H10.8512L5.62321 34.6523V46.3359H1V26.2599H5.62321L11.1081 35.169L16.6013 26.2451ZM31.2762 26.2451L24.4011 46.3211H29.4568L30.4676 43.1649H37.9791L38.9899 46.3211H44.0456L37.1704 26.2451H31.2762ZM31.8546 38.8683L34.2242 31.4944L36.5921 38.8683H31.8546ZM61.2211 36.5332C61.894 35.5256 62.2509 34.3425 62.2468 33.1335C62.2505 32.2281 62.0737 31.331 61.7265 30.4939C61.3793 29.6568 60.8686 28.8962 60.2238 28.2562C59.5791 27.616 58.8131 27.1091 57.9701 26.7645C57.127 26.4199 56.2236 26.2445 55.312 26.2484H47.2321V46.3243H51.8537V39.7256H54.0493L57.8605 46.3243H62.8317L58.5234 38.9506C59.621 38.3944 60.5516 37.5605 61.2211 36.5332ZM56.9458 34.9699C56.7447 35.205 56.4943 35.3936 56.212 35.5223C55.9298 35.6511 55.6226 35.717 55.312 35.7154H51.8454V30.5499H55.312C55.6226 30.5483 55.9298 30.6142 56.212 30.7429C56.4943 30.8717 56.7447 31.0602 56.9458 31.2954C57.3835 31.8086 57.6236 32.4593 57.6236 33.1318C57.6236 33.8043 57.3835 34.4551 56.9458 34.9683V34.9699ZM75.679 36.0313L82.7861 46.3309H77.5282L71.0574 37.0269V46.3227H66.4342V26.2468H71.0574V34.9683L77.2399 26.2468H82.4978L75.679 36.0313ZM90.5925 41.9126H98.6823V46.3309H85.9644V26.255H98.5316V30.6733H90.5776V34.0007H97.8008V38.3614H90.5859L90.5925 41.9126ZM101.282 26.2484H116.299V30.6667H111.099V46.3309H106.476V30.6651H101.276L101.282 26.2484ZM150 46.3507L141.037 46.3211L141.047 57.4468L126.75 46.3211H121.18V41.6345H128.415L137.231 49.6402V41.6345H145.264V5.04682H86.551V0.342122H149.997V41.6345L150 46.3507Z" fill="#6F42C1"/>
</svg>
